<?xml version="1.0" encoding="UTF-8"?>
<svg version="1.1" xmlns="http://www.w3.org/2000/svg" width="500" height="67">
<path d="M0 0 C79.2 0 158.4 0 240 0 C240 2.64 240 5.28 240 8 C163.44 8 86.88 8 8 8 C8 24.17 8 40.34 8 57 C5.69 57 3.38 57 1 57 C0.67 44.46 0.34 31.92 0 19 C-1.44375 21.92875 -2.8875 24.8575 -4.375 27.875 C-9.28246962 37.7572323 -14.5541468 47.40602883 -20 57 C-22.97 57 -25.94 57 -29 57 C-27.71985322 53.70725883 -26.32788685 50.52756337 -24.75 47.3671875 C-24.31131592 46.48780518 -23.87263184 45.60842285 -23.4206543 44.70239258 C-22.95183838 43.76935303 -22.48302246 42.83631348 -22 41.875 C-21.51378174 40.90522217 -21.02756348 39.93544434 -20.52661133 38.9362793 C-13.92769641 25.82290017 -7.02977734 12.88792512 0 0 Z " fill="#000000" transform="translate(255,0)"/>
<path d="M0 0 C3.3 0 6.6 0 10 0 C10.33 0.66 10.66 1.32 11 2 C11.639375 1.67 12.27875 1.34 12.9375 1 C17.88593112 -0.61581424 22.89110807 -0.86272852 27.75 1.125 C29.99238817 2.29175334 29.99238817 2.29175334 32.1875 1.125 C36.42501037 -0.57000415 40.49688852 -0.60633028 45 0 C47.86997952 1.6399883 49.51946987 2.61353989 50.61499023 5.77441406 C51.08715591 8.50381313 51.11179136 11.08889256 51.09765625 13.859375 C51.09443359 14.97441406 51.09121094 16.08945312 51.08789062 17.23828125 C51.07532227 18.97658203 51.07532227 18.97658203 51.0625 20.75 C51.05798828 21.92433594 51.05347656 23.09867188 51.04882812 24.30859375 C51.03705106 27.20575095 51.01911588 30.10288193 51 33 C47.04 33 43.08 33 39 33 C38.67 25.41 38.34 17.82 38 10 C35.69 10 33.38 10 31 10 C31 17.59 31 25.18 31 33 C27.37 33 23.74 33 20 33 C19.67 25.74 19.34 18.48 19 11 C15.0404226 9.83830958 15.0404226 9.83830958 11 10 C11 17.59 11 25.18 11 33 C7.37 33 3.74 33 0 33 C0 22.11 0 11.22 0 0 Z " fill="#3F6ECF" transform="translate(29,23)"/>
<path d="M0 0 C1.20462891 -0.02126953 1.20462891 -0.02126953 2.43359375 -0.04296875 C4.5625 0.1875 4.5625 0.1875 6.5625 2.1875 C7.2740625 1.86652344 7.985625 1.54554687 8.71875 1.21484375 C13.30930098 -0.44355585 17.75141125 -0.52766184 22.5625 0.1875 C26.22950681 2.82774491 27.79810266 4.8130281 28.5625 9.1875 C28.68110998 11.47694841 28.73767481 13.77001435 28.75 16.0625 C28.76417969 17.25617187 28.77835938 18.44984375 28.79296875 19.6796875 C28.51304334 23.94024713 27.8162796 27.60664746 25.125 31 C21.50716399 33.74955537 17.72211008 33.28988174 13.375 33.25 C12.10269531 33.24097656 10.83039063 33.23195312 9.51953125 33.22265625 C8.05580078 33.20525391 8.05580078 33.20525391 6.5625 33.1875 C6.5625 36.4875 6.5625 39.7875 6.5625 43.1875 C2.6025 43.1875 -1.3575 43.1875 -5.4375 43.1875 C-5.46214574 37.22436834 -5.480334 31.26126605 -5.49243164 25.2980957 C-5.49747278 23.26781702 -5.50430557 21.23754198 -5.51293945 19.20727539 C-5.52501467 16.29572653 -5.53073034 13.3842255 -5.53515625 10.47265625 C-5.54031754 9.5591188 -5.54547882 8.64558136 -5.55079651 7.70436096 C-5.55099168 5.53174573 -5.49961805 3.35922704 -5.4375 1.1875 C-3.84855928 -0.40144072 -2.18948576 0.01751589 0 0 Z M6.5625 10.1875 C6.5625 14.8075 6.5625 19.4275 6.5625 24.1875 C9.8625 24.1875 13.1625 24.1875 16.5625 24.1875 C16.58935412 21.87506208 16.60882841 19.5625373 16.625 17.25 C16.63660156 15.96222656 16.64820313 14.67445312 16.66015625 13.34765625 C16.92782549 10.32451597 16.92782549 10.32451597 15.5625 9.1875 C12.21142584 9.00636086 9.88225682 9.3575608 6.5625 10.1875 Z " fill="#406ED0" transform="translate(89.4375,22.8125)"/>
<path d="M0 0 C2.88323971 0.66852517 2.88323971 0.66852517 5.8125 -0.5625 C13.33122659 -0.97261236 13.33122659 -0.97261236 16.8125 1.4375 C18.09111615 3.99473229 17.92586609 5.80487102 17.91015625 8.6640625 C17.90693359 9.6953125 17.90371094 10.7265625 17.90039062 11.7890625 C17.88782227 13.40941406 17.88782227 13.40941406 17.875 15.0625 C17.87048828 16.15046875 17.86597656 17.2384375 17.86132812 18.359375 C17.8495179 21.05210662 17.83158205 23.74481009 17.8125 26.4375 C14.5125 26.4375 11.2125 26.4375 7.8125 26.4375 C7.8125 20.1675 7.8125 13.8975 7.8125 7.4375 C6.1625 7.4375 4.5125 7.4375 2.8125 7.4375 C2.8125 13.7075 2.8125 19.9775 2.8125 26.4375 C-0.8175 26.4375 -4.4475 26.4375 -8.1875 26.4375 C-8.1875 20.1675 -8.1875 13.8975 -8.1875 7.4375 C-9.5075 7.7675 -10.8275 8.0975 -12.1875 8.4375 C-12.5175 14.3775 -12.8475 20.3175 -13.1875 26.4375 C-16.4875 26.4375 -19.7875 26.4375 -23.1875 26.4375 C-23.1875 17.8575 -23.1875 9.2775 -23.1875 0.4375 C-19.5575 0.4375 -15.9275 0.4375 -12.1875 0.4375 C-7.95318627 -0.97393791 -4.37589699 -0.77221712 0 0 Z " fill="#000000" transform="translate(447.1875,27.5625)"/>
<path d="M0 0 C3.63 0 7.26 0 11 0 C14.47206269 6.58577029 17.15659062 13.33901647 19.75 20.3125 C20.16121094 21.39595703 20.57242188 22.47941406 20.99609375 23.59570312 C21.38410156 24.63275391 21.77210938 25.66980469 22.171875 26.73828125 C22.5234668 27.67712158 22.87505859 28.61596191 23.23730469 29.58325195 C24 32 24 32 24 35 C20.37 35 16.74 35 13 35 C12.34 33.35 11.68 31.7 11 30 C7.7 30 4.4 30 1 30 C0.01 32.475 0.01 32.475 -1 35 C-4.63 35 -8.26 35 -12 35 C-11.13932427 30.69662134 -10.01222071 27.04450421 -8.49609375 22.94921875 C-8.2533522 22.29041214 -8.01061066 21.63160553 -7.76051331 20.95283508 C-6.98963528 18.86309241 -6.21365204 16.77528883 -5.4375 14.6875 C-4.91177031 13.26509923 -4.38637609 11.84257443 -3.86132812 10.41992188 C-2.57809843 6.94517045 -1.29028535 3.47213854 0 0 Z M5 15 C4.34 17.31 3.68 19.62 3 22 C4.98 22 6.96 22 9 22 C8.01 19.69 7.02 17.38 6 15 C5.67 15 5.34 15 5 15 Z " fill="#000000" transform="translate(285,19)"/>
<path d="M0 0 C6.93359375 -0.09765625 6.93359375 -0.09765625 9 0 C10 1 10 1 10.11352539 4.23461914 C10.11336631 5.66814126 10.10767407 7.10166912 10.09765625 8.53515625 C10.0962413 9.28840683 10.09482635 10.04165741 10.09336853 10.81773376 C10.08775376 13.2326956 10.07519883 15.64756601 10.0625 18.0625 C10.0574869 19.69596221 10.05292366 21.32942586 10.04882812 22.96289062 C10.03777954 26.97529585 10.02050506 30.98763241 10 35 C5.66666667 35 1.33333333 35 -3 35 C-3.84433594 35.04640625 -4.68867188 35.0928125 -5.55859375 35.140625 C-6.98365234 35.19476563 -6.98365234 35.19476563 -8.4375 35.25 C-9.38496094 35.29640625 -10.33242188 35.3428125 -11.30859375 35.390625 C-14 35 -14 35 -16.32421875 33.515625 C-18.70215444 29.94594998 -18.50839883 26.63536361 -18.375 22.5 C-18.37371094 21.74074219 -18.37242187 20.98148438 -18.37109375 20.19921875 C-18.25984889 13.14135023 -18.25984889 13.14135023 -16 10 C-12.99686252 8.49843126 -10.20932478 8.90718796 -6.875 8.9375 C-5.59367187 8.94652344 -4.31234375 8.95554687 -2.9921875 8.96484375 C-1.51105469 8.98224609 -1.51105469 8.98224609 0 9 C0 6.03 0 3.06 0 0 Z M-8 17 C-8.07205511 18.68608966 -8.08386068 20.37500659 -8.0625 22.0625 C-8.05347656 22.98160156 -8.04445313 23.90070312 -8.03515625 24.84765625 C-8.02355469 25.55792969 -8.01195312 26.26820312 -8 27 C-5.13822943 28.43088528 -3.06624227 27.59991697 0 27 C0 23.37 0 19.74 0 16 C-4.32320086 15.49633499 -4.32320086 15.49633499 -8 17 Z " fill="#000000" transform="translate(382,19)"/>
<path d="M0 0 C7.59 0 15.18 0 23 0 C23 2.97 23 5.94 23 9 C21.02 9 19.04 9 17 9 C17 17.25 17 25.5 17 34 C18.98 34 20.96 34 23 34 C23 36.97 23 39.94 23 43 C15.41 43 7.82 43 0 43 C0 40.03 0 37.06 0 34 C1.98 34 3.96 34 6 34 C6 25.75 6 17.5 6 9 C4.02 9 2.04 9 0 9 C0 6.03 0 3.06 0 0 Z " fill="#3861B7" transform="translate(2,13)"/>
<path d="M0 0 C0.93457031 0.00322266 1.86914062 0.00644531 2.83203125 0.00976562 C3.80011719 0.01814453 4.76820313 0.02652344 5.765625 0.03515625 C6.74917969 0.03966797 7.73273438 0.04417969 8.74609375 0.04882812 C11.16929694 0.06059125 13.59246877 0.07852607 16.015625 0.09765625 C16.015625 3.06765625 16.015625 6.03765625 16.015625 9.09765625 C7.600625 9.59265625 7.600625 9.59265625 -0.984375 10.09765625 C-0.984375 14.71765625 -0.984375 19.33765625 -0.984375 24.09765625 C4.625625 24.09765625 10.235625 24.09765625 16.015625 24.09765625 C16.015625 26.73765625 16.015625 29.37765625 16.015625 32.09765625 C12.5396895 33.835624 8.60123827 33.57015551 4.765625 33.78515625 C3.91871094 33.84509766 3.07179687 33.90503906 2.19921875 33.96679688 C-2.62653109 34.24073135 -6.51056586 34.22306402 -10.984375 32.09765625 C-15.54379704 25.41050393 -14.78786677 16.48105109 -13.6328125 8.7421875 C-12.81263059 5.48231194 -11.7802542 3.03326492 -8.984375 1.09765625 C-5.93812098 0.13749626 -3.18339905 -0.01941097 0 0 Z " fill="#375FB4" transform="translate(200.984375,22.90234375)"/>
<path d="M0 0 C1.29808594 -0.01675781 2.59617187 -0.03351562 3.93359375 -0.05078125 C7.70829685 0.32709538 9.58227764 1.02302076 12.5625 3.3125 C13.93502731 6.05755463 13.69479255 8.31577412 13.6875 11.375 C13.69136719 13.00115234 13.69136719 13.00115234 13.6953125 14.66015625 C13.5625 17.3125 13.5625 17.3125 12.5625 18.3125 C10.03200598 18.38563567 7.52945163 18.40497527 5 18.375 C4.28908203 18.37048828 3.57816406 18.36597656 2.84570312 18.36132812 C1.08459987 18.34950864 -0.67646036 18.33157263 -2.4375 18.3125 C-2.4375 18.9725 -2.4375 19.6325 -2.4375 20.3125 C2.5125 20.3125 7.4625 20.3125 12.5625 20.3125 C12.5625 22.2925 12.5625 24.2725 12.5625 26.3125 C8.91870011 28.13439994 4.63667515 27.54010405 0.625 27.5625 C-0.75461914 27.5934375 -0.75461914 27.5934375 -2.16210938 27.625 C-3.04576172 27.63015625 -3.92941406 27.6353125 -4.83984375 27.640625 C-5.64929443 27.6499707 -6.45874512 27.65931641 -7.29272461 27.66894531 C-9.9509748 27.22716441 -10.78332338 26.39391848 -12.4375 24.3125 C-13.93118864 21.32512272 -13.62187999 18.27289093 -13.625 15 C-13.63917969 13.68386719 -13.65335937 12.36773437 -13.66796875 11.01171875 C-13.45101415 7.52941363 -13.17233761 5.31699795 -11.4375 2.3125 C-8.02467149 -0.34549114 -4.18214067 0.01243451 0 0 Z M-2.4375 7.3125 C-2.4375 8.6325 -2.4375 9.9525 -2.4375 11.3125 C-0.4575 11.3125 1.5225 11.3125 3.5625 11.3125 C3.2325 9.9925 2.9025 8.6725 2.5625 7.3125 C0.9125 7.3125 -0.7375 7.3125 -2.4375 7.3125 Z " fill="#000000" transform="translate(407.4375,26.6875)"/>
<path d="M0 0 C1.08539063 -0.04898437 2.17078125 -0.09796875 3.2890625 -0.1484375 C6.375 0.375 6.375 0.375 9.25390625 2.19140625 C12.40889049 6.92678775 11.91836051 11.13619256 11.6875 16.6875 C11.66494141 17.71423828 11.64238281 18.74097656 11.61914062 19.79882812 C11.56037575 22.3257179 11.47827849 24.84960255 11.375 27.375 C9.91676788 27.4020043 8.45839325 27.42139787 7 27.4375 C6.18789063 27.44910156 5.37578125 27.46070312 4.5390625 27.47265625 C2.375 27.375 2.375 27.375 0.375 26.375 C-0.285 26.705 -0.945 27.035 -1.625 27.375 C-3.43343663 27.52216542 -5.24831566 27.5960887 -7.0625 27.625 C-8.51462891 27.66367187 -8.51462891 27.66367187 -9.99609375 27.703125 C-12.625 27.375 -12.625 27.375 -14.4453125 26.16796875 C-15.99066048 23.8192445 -16.0582906 22.23674778 -16.0625 19.4375 C-16.08183594 18.58285156 -16.10117187 17.72820313 -16.12109375 16.84765625 C-15.44641453 13.484885 -14.41298118 12.35342058 -11.625 10.375 C-8.390625 9.984375 -8.390625 9.984375 -4.875 10.125 C-3.70453125 10.16109375 -2.5340625 10.1971875 -1.328125 10.234375 C-0.43609375 10.28078125 0.4559375 10.3271875 1.375 10.375 C1.045 9.715 0.715 9.055 0.375 8.375 C-4.245 8.375 -8.865 8.375 -13.625 8.375 C-13.625 6.065 -13.625 3.755 -13.625 1.375 C-9.09740601 0.53265693 -4.60258728 0.17762539 0 0 Z M-5.625 17.375 C-5.295 18.365 -4.965 19.355 -4.625 20.375 C-2.645 20.045 -0.665 19.715 1.375 19.375 C1.375 18.715 1.375 18.055 1.375 17.375 C-0.935 17.375 -3.245 17.375 -5.625 17.375 Z " fill="#000000" transform="translate(350.625,26.625)"/>
<path d="M0 0 C3.63 0 7.26 0 11 0 C12.65 3.96 14.3 7.92 16 12 C17.32 8.04 18.64 4.08 20 0 C23.63 0 27.26 0 31 0 C29.66194386 3.9006248 28.3106376 7.79638151 26.94726562 11.68823242 C26.48598026 13.01087454 26.0282385 14.33475837 25.57421875 15.65991211 C24.91830242 17.5722822 24.2494719 19.47971909 23.578125 21.38671875 C23.18012695 22.53358154 22.78212891 23.68044434 22.37207031 24.86206055 C20.71670214 28.64790522 18.8695508 32.06900912 15.0703125 33.9609375 C10.73856898 34.8829552 7.3905576 35.0976394 3 34 C2.95745644 32.00045254 2.95919217 29.99958364 3 28 C4 27 4 27 7.0625 26.9375 C8.5165625 26.9684375 8.5165625 26.9684375 10 27 C6.08074741 16.20454756 6.08074741 16.20454756 1.625 5.625 C0 2 0 2 0 0 Z " fill="#000000" transform="translate(465,28)"/>
<path d="M0 0 C3.3 0 6.6 0 10 0 C10.33 0.66 10.66 1.32 11 2 C11.639375 1.67 12.27875 1.34 12.9375 1 C17.88593112 -0.61581424 22.89110807 -0.86272852 27.75 1.125 C29.99238817 2.29175334 29.99238817 2.29175334 32.1875 1.125 C36.42501037 -0.57000415 40.49688852 -0.60633028 45 0 C47.86997952 1.6399883 49.51946987 2.61353989 50.61499023 5.77441406 C51.08715591 8.50381313 51.11179136 11.08889256 51.09765625 13.859375 C51.09443359 14.97441406 51.09121094 16.08945312 51.08789062 17.23828125 C51.07532227 18.97658203 51.07532227 18.97658203 51.0625 20.75 C51.05798828 21.92433594 51.05347656 23.09867188 51.04882812 24.30859375 C51.03705106 27.20575095 51.01911588 30.10288193 51 33 C47.04 33 43.08 33 39 33 C38.67 25.41 38.34 17.82 38 10 C35.69 10 33.38 10 31 10 C31 17.59 31 25.18 31 33 C27.37 33 23.74 33 20 33 C19.67 25.74 19.34 18.48 19 11 C15.0404226 9.83830958 15.0404226 9.83830958 11 10 C11 17.59 11 25.18 11 33 C7.37 33 3.74 33 0 33 C0 22.11 0 11.22 0 0 Z M2 3 C2 11.91 2 20.82 2 30 C3.98 29.67 5.96 29.34 8 29 C8.03758423 28.14450562 8.03758423 28.14450562 8.07592773 27.27172852 C8.19156549 24.70173843 8.31443624 22.13214473 8.4375 19.5625 C8.47681641 18.66466797 8.51613281 17.76683594 8.55664062 16.84179688 C8.59853516 15.98779297 8.64042969 15.13378906 8.68359375 14.25390625 C8.72025146 13.46314697 8.75690918 12.6723877 8.79467773 11.85766602 C9 10 9 10 10 9 C11.47648876 8.90176004 12.95775417 8.87026481 14.4375 8.875 C15.64212891 8.87113281 15.64212891 8.87113281 16.87109375 8.8671875 C19 9 19 9 21 10 C21.33 16.6 21.66 23.2 22 30 C26.63019987 29.5547002 26.63019987 29.5547002 28 28 C28.14386104 26.67113927 28.22676288 25.33551413 28.28125 24 C28.31863281 23.195625 28.35601562 22.39125 28.39453125 21.5625 C28.42933594 20.716875 28.46414062 19.87125 28.5 19 C28.56860509 17.33315029 28.64130223 15.66646226 28.71875 14 C28.76418945 12.88625 28.76418945 12.88625 28.81054688 11.75 C29 10 29 10 30 9 C31.85287502 8.92773498 33.70833878 8.9161878 35.5625 8.9375 C36.57441406 8.94652344 37.58632812 8.95554687 38.62890625 8.96484375 C39.41136719 8.97644531 40.19382813 8.98804688 41 9 C40.99476318 9.63091553 40.98952637 10.26183105 40.98413086 10.91186523 C40.96342174 13.75373347 40.95035934 16.59558588 40.9375 19.4375 C40.92493164 20.92733398 40.92493164 20.92733398 40.91210938 22.44726562 C40.90888672 23.39150391 40.90566406 24.33574219 40.90234375 25.30859375 C40.89710693 26.18314209 40.89187012 27.05769043 40.88647461 27.95874023 C40.77215191 29.99440206 40.77215191 29.99440206 42 31 C45 31.16666667 45 31.16666667 48 31 C49.27305556 29.95128747 49.27305556 29.95128747 49.11352539 27.59155273 C49.10828857 26.54942627 49.10305176 25.5072998 49.09765625 24.43359375 C49.09443359 23.30888672 49.09121094 22.18417969 49.08789062 21.02539062 C49.07951172 19.84138672 49.07113281 18.65738281 49.0625 17.4375 C49.05798828 16.24962891 49.05347656 15.06175781 49.04882812 13.83789062 C49.03699675 10.89187774 49.02051287 7.94596319 49 5 C43.94117612 3.17159651 40.32059729 2.73397014 35 3 C34.34 3.33 33.68 3.66 33 4 C29.4798376 3.85146994 25.98372651 3.59945994 22.47265625 3.31640625 C18.0988302 3.00344487 14.34091442 3.21074283 10 4 C9.34 3.67 8.68 3.34 8 3 C6.02 3 4.04 3 2 3 Z " fill="#365DAF" transform="translate(29,23)"/>
<path d="M0 0 C1.23556641 0.01740234 1.23556641 0.01740234 2.49609375 0.03515625 C3.32238281 0.04417969 4.14867187 0.05320312 5 0.0625 C5.63808594 0.07410156 6.27617187 0.08570312 6.93359375 0.09765625 C7.26359375 1.08765625 7.59359375 2.07765625 7.93359375 3.09765625 C8.75859375 2.60265625 9.58359375 2.10765625 10.43359375 1.59765625 C14.68847563 -0.22586456 17.35668046 -0.13908064 21.93359375 0.09765625 C21.93359375 3.39765625 21.93359375 6.69765625 21.93359375 10.09765625 C15.49859375 10.59265625 15.49859375 10.59265625 8.93359375 11.09765625 C8.93359375 18.35765625 8.93359375 25.61765625 8.93359375 33.09765625 C4.97359375 33.09765625 1.01359375 33.09765625 -3.06640625 33.09765625 C-3.09106017 28.5586792 -3.10924414 24.01974082 -3.12133789 19.48071289 C-3.12637765 17.93545859 -3.13320945 16.39020909 -3.1418457 14.8449707 C-3.15392701 12.62840596 -3.15963798 10.41190407 -3.1640625 8.1953125 C-3.16922379 7.50051285 -3.17438507 6.8057132 -3.17970276 6.08985901 C-3.17989902 4.42536295 -3.12829754 2.76100126 -3.06640625 1.09765625 C-2.06640625 0.09765625 -2.06640625 0.09765625 0 0 Z " fill="#3F6DCE" transform="translate(144.06640625,22.90234375)"/>
<path d="M0 0 C0.98355469 0.02255859 1.96710938 0.04511719 2.98046875 0.06835938 C5.4051947 0.12721195 7.82681983 0.20936569 10.25 0.3125 C10.25 2.6225 10.25 4.9325 10.25 7.3125 C5.63 7.6425 1.01 7.9725 -3.75 8.3125 C-3.75 11.6125 -3.75 14.9125 -3.75 18.3125 C0.87 18.3125 5.49 18.3125 10.25 18.3125 C10.25 20.6225 10.25 22.9325 10.25 25.3125 C6.73495709 27.07002146 2.74766748 26.58203401 -1.125 26.625 C-1.98867188 26.65400391 -2.85234375 26.68300781 -3.7421875 26.71289062 C-7.52074269 26.7507928 -10.01134741 26.74132263 -13.3203125 24.8203125 C-15.36444454 21.23470385 -15.33225407 17.8883134 -15.25 13.875 C-15.26546875 13.12412109 -15.2809375 12.37324219 -15.296875 11.59960938 C-15.27164553 8.0138705 -14.87868921 5.59798296 -13.390625 2.296875 C-9.20972356 -0.84498584 -5.07182327 -0.21948636 0 0 Z " fill="#000000" transform="translate(323.75,27.6875)"/>
<path d="M0 0 C1.20462891 -0.02126953 1.20462891 -0.02126953 2.43359375 -0.04296875 C4.5625 0.1875 4.5625 0.1875 6.5625 2.1875 C7.2740625 1.86652344 7.985625 1.54554687 8.71875 1.21484375 C13.30930098 -0.44355585 17.75141125 -0.52766184 22.5625 0.1875 C26.22950681 2.82774491 27.79810266 4.8130281 28.5625 9.1875 C28.68110998 11.47694841 28.73767481 13.77001435 28.75 16.0625 C28.76417969 17.25617187 28.77835938 18.44984375 28.79296875 19.6796875 C28.51304334 23.94024713 27.8162796 27.60664746 25.125 31 C21.50716399 33.74955537 17.72211008 33.28988174 13.375 33.25 C12.10269531 33.24097656 10.83039063 33.23195312 9.51953125 33.22265625 C8.05580078 33.20525391 8.05580078 33.20525391 6.5625 33.1875 C6.5625 36.4875 6.5625 39.7875 6.5625 43.1875 C2.6025 43.1875 -1.3575 43.1875 -5.4375 43.1875 C-5.46214574 37.22436834 -5.480334 31.26126605 -5.49243164 25.2980957 C-5.49747278 23.26781702 -5.50430557 21.23754198 -5.51293945 19.20727539 C-5.52501467 16.29572653 -5.53073034 13.3842255 -5.53515625 10.47265625 C-5.54031754 9.5591188 -5.54547882 8.64558136 -5.55079651 7.70436096 C-5.55099168 5.53174573 -5.49961805 3.35922704 -5.4375 1.1875 C-3.84855928 -0.40144072 -2.18948576 0.01751589 0 0 Z M-2.4375 3.1875 C-2.4375 15.0675 -2.4375 26.9475 -2.4375 39.1875 C-1.1175 39.5175 0.2025 39.8475 1.5625 40.1875 C3.84978734 38.34866119 3.84978734 38.34866119 3.6875 35.5625 C3.64625 34.77875 3.605 33.995 3.5625 33.1875 C4.5525 32.8575 5.5425 32.5275 6.5625 32.1875 C6.5625 31.5275 6.5625 30.8675 6.5625 30.1875 C7.45453125 30.21070312 8.3465625 30.23390625 9.265625 30.2578125 C11.02132812 30.28488281 11.02132812 30.28488281 12.8125 30.3125 C13.97265625 30.33570312 15.1328125 30.35890625 16.328125 30.3828125 C19.40931133 30.19675052 21.0410909 29.90445953 23.5625 28.1875 C25.44769529 24.41710943 24.74725994 19.83595405 24.75 15.6875 C24.76836914 14.22376953 24.76836914 14.22376953 24.78710938 12.73046875 C24.78904297 11.79847656 24.79097656 10.86648437 24.79296875 9.90625 C24.79913208 8.62137695 24.79913208 8.62137695 24.80541992 7.31054688 C24.76074733 4.97098731 24.76074733 4.97098731 22.5625 3.1875 C19.9409358 2.90922748 19.9409358 2.90922748 16.8984375 2.9921875 C15.8882959 2.99718262 14.8781543 3.00217773 13.83740234 3.00732422 C11.90695068 3.03463623 11.90695068 3.03463623 9.9375 3.0625 C3.811875 3.124375 3.811875 3.124375 -2.4375 3.1875 Z " fill="#3861B7" transform="translate(89.4375,22.8125)"/>
<path d="M0 0 C5.28 0 10.56 0 16 0 C16 10.23 16 20.46 16 31 C12.37 31 8.74 31 5 31 C5 23.41 5 15.82 5 8 C3.35 8 1.7 8 0 8 C0 5.36 0 2.72 0 0 Z " fill="#3A65BE" transform="translate(120,25)"/>
<path d="M0 0 C5.28 0 10.56 0 16 0 C16 10.23 16 20.46 16 31 C12.37 31 8.74 31 5 31 C5 23.41 5 15.82 5 8 C3.35 8 1.7 8 0 8 C0 5.36 0 2.72 0 0 Z " fill="#406FD1" transform="translate(167,25)"/>
<path d="M0 0 C5.28 0 10.56 0 16 0 C16 0.99 16 1.98 16 3 C15.01 3.66 14.02 4.32 13 5 C11.9407082 8.17787541 11.88541061 10.42588943 11.90234375 13.76171875 C11.90556641 14.87998047 11.90878906 15.99824219 11.91210938 17.15039062 C11.92048828 18.31763672 11.92886719 19.48488281 11.9375 20.6875 C11.94201172 21.86634766 11.94652344 23.04519531 11.95117188 24.25976562 C11.96296727 27.17322789 11.9794273 30.08658863 12 33 C12.99 33 13.98 33 15 33 C14.67 34.32 14.34 35.64 14 37 C9.05 37 4.1 37 -1 37 C-1 35.68 -1 34.36 -1 33 C0.485 32.505 0.485 32.505 2 32 C3.35700647 29.28598706 3.1123861 27.15153684 3.09765625 24.1171875 C3.09443359 22.95058594 3.09121094 21.78398438 3.08789062 20.58203125 C3.07951172 19.35871094 3.07113281 18.13539062 3.0625 16.875 C3.05798828 15.64394531 3.05347656 14.41289062 3.04882812 13.14453125 C3.0370133 10.09630608 3.02054028 7.04817686 3 4 C2.01 4 1.02 4 0 4 C0 2.68 0 1.36 0 0 Z " fill="#3F6ED0" transform="translate(6,16)"/>
<path d="M0 0 C0.89267578 0.00966797 1.78535156 0.01933594 2.70507812 0.02929688 C4.09823242 0.06700195 4.09823242 0.06700195 5.51953125 0.10546875 C6.45990234 0.11900391 7.40027344 0.13253906 8.36914062 0.14648438 C10.69068163 0.18183779 13.01106778 0.23118201 15.33203125 0.29296875 C15.33203125 1.28296875 15.33203125 2.27296875 15.33203125 3.29296875 C11.55908762 4.55061663 7.97630393 4.66129417 4.0234375 4.9140625 C1.37084806 5.28750397 -0.37194646 5.95226543 -2.66796875 7.29296875 C-2.55303118 9.18943873 -2.42557233 11.08515207 -2.29296875 12.98046875 C-2.22335938 14.03621094 -2.15375 15.09195313 -2.08203125 16.1796875 C-1.74404484 19.69665155 -1.74404484 19.69665155 0.33203125 24.29296875 C5.28203125 24.29296875 10.23203125 24.29296875 15.33203125 24.29296875 C15.00203125 25.28296875 14.67203125 26.27296875 14.33203125 27.29296875 C9.91743664 28.09562232 5.56864287 28.45845599 1.08203125 28.60546875 C0.06625 28.64285156 -0.94953125 28.68023437 -1.99609375 28.71875 C-4.66796875 28.29296875 -4.66796875 28.29296875 -6.31005859 26.57128906 C-7.87548315 23.94479825 -8.05417609 22.44918128 -8.06640625 19.4140625 C-8.07027344 18.49302734 -8.07414063 17.57199219 -8.078125 16.62304688 C-8.06072266 15.1912207 -8.06072266 15.1912207 -8.04296875 13.73046875 C-8.05457031 12.77205078 -8.06617188 11.81363281 -8.078125 10.82617188 C-8.07425781 9.90642578 -8.07039062 8.98667969 -8.06640625 8.0390625 C-8.06302246 7.20044678 -8.05963867 6.36183105 -8.05615234 5.49780273 C-7.66796875 3.29296875 -7.66796875 3.29296875 -6.43481445 1.51464844 C-4.14588357 -0.06802534 -2.76765342 -0.0528851 0 0 Z " fill="#3F6DCF" transform="translate(198.66796875,25.70703125)"/>
<path d="M0 0 C0.33 0 0.66 0 1 0 C1 8.58 1 17.16 1 26 C2.98 25.67 4.96 25.34 7 25 C6.98952637 24.43490723 6.97905273 23.86981445 6.96826172 23.28759766 C6.92675212 20.73344347 6.9006904 18.17936018 6.875 15.625 C6.85824219 14.73554687 6.84148438 13.84609375 6.82421875 12.9296875 C6.81777344 12.07890625 6.81132813 11.228125 6.8046875 10.3515625 C6.79421387 9.56604004 6.78374023 8.78051758 6.77294922 7.97119141 C7 6 7 6 9 4 C11.05859375 3.734375 11.05859375 3.734375 13.4375 3.75 C14.61119141 3.74226563 14.61119141 3.74226563 15.80859375 3.734375 C18 4 18 4 21 6 C21.34057617 8.06298828 21.34057617 8.06298828 21.29296875 10.5703125 C21.28330078 11.46621094 21.27363281 12.36210938 21.26367188 13.28515625 C21.23853516 14.22230469 21.21339844 15.15945312 21.1875 16.125 C21.16719727 17.54232422 21.16719727 17.54232422 21.14648438 18.98828125 C21.11106306 21.32608779 21.06167271 23.66276237 21 26 C22.65 25.34 24.3 24.68 26 24 C26.04898438 22.72382812 26.09796875 21.44765625 26.1484375 20.1328125 C26.22346191 18.46351928 26.29900988 16.79424954 26.375 15.125 C26.42140625 13.86236328 26.42140625 13.86236328 26.46875 12.57421875 C26.50742187 11.76855469 26.54609375 10.96289062 26.5859375 10.1328125 C26.6173584 9.38918457 26.6487793 8.64555664 26.68115234 7.87939453 C27 6 27 6 29 4 C31.68839385 3.73008094 34.29141936 3.91262643 37 4 C34 6 34 6 30 6 C30 13.59 30 21.18 30 29 C26.37 29 22.74 29 19 29 C18.67 21.74 18.34 14.48 18 7 C14.0404226 5.83830958 14.0404226 5.83830958 10 6 C9.97494385 6.59538574 9.9498877 7.19077148 9.92407227 7.80419922 C9.80822506 10.49469136 9.68544804 13.1848234 9.5625 15.875 C9.52318359 16.81214844 9.48386719 17.74929687 9.44335938 18.71484375 C9.40146484 19.61074219 9.35957031 20.50664063 9.31640625 21.4296875 C9.26141968 22.67081299 9.26141968 22.67081299 9.20532227 23.93701172 C9 26 9 26 8 28 C5.66705225 28.04241723 3.33297433 28.04092937 1 28 C0 27 0 27 -0.11352539 24.40795898 C-0.10828857 23.28204346 -0.10305176 22.15612793 -0.09765625 20.99609375 C-0.09443359 19.78115234 -0.09121094 18.56621094 -0.08789062 17.31445312 C-0.07951172 16.03505859 -0.07113281 14.75566406 -0.0625 13.4375 C-0.05798828 12.15423828 -0.05347656 10.87097656 -0.04882812 9.54882812 C-0.03699545 6.36583978 -0.02051068 3.18294238 0 0 Z " fill="#3963BA" transform="translate(30,27)"/>
<path d="M0 0 C1.23556641 0.01740234 1.23556641 0.01740234 2.49609375 0.03515625 C3.32238281 0.04417969 4.14867187 0.05320312 5 0.0625 C5.63808594 0.07410156 6.27617187 0.08570312 6.93359375 0.09765625 C7.26359375 1.08765625 7.59359375 2.07765625 7.93359375 3.09765625 C8.75859375 2.60265625 9.58359375 2.10765625 10.43359375 1.59765625 C14.68847563 -0.22586456 17.35668046 -0.13908064 21.93359375 0.09765625 C21.93359375 3.39765625 21.93359375 6.69765625 21.93359375 10.09765625 C15.49859375 10.59265625 15.49859375 10.59265625 8.93359375 11.09765625 C8.93359375 18.35765625 8.93359375 25.61765625 8.93359375 33.09765625 C4.97359375 33.09765625 1.01359375 33.09765625 -3.06640625 33.09765625 C-3.09106017 28.5586792 -3.10924414 24.01974082 -3.12133789 19.48071289 C-3.12637765 17.93545859 -3.13320945 16.39020909 -3.1418457 14.8449707 C-3.15392701 12.62840596 -3.15963798 10.41190407 -3.1640625 8.1953125 C-3.16922379 7.50051285 -3.17438507 6.8057132 -3.17970276 6.08985901 C-3.17989902 4.42536295 -3.12829754 2.76100126 -3.06640625 1.09765625 C-2.06640625 0.09765625 -2.06640625 0.09765625 0 0 Z M10.93359375 3.09765625 C8.0854841 3.16976029 5.25055448 3.09388224 2.40234375 3.03515625 C-0.01099481 2.81258329 -0.01099481 2.81258329 -1.06640625 4.09765625 C-1.16612411 6.01223907 -1.19721214 7.93047942 -1.19921875 9.84765625 C-1.20050781 11.01296875 -1.20179688 12.17828125 -1.203125 13.37890625 C-1.19925781 14.60609375 -1.19539062 15.83328125 -1.19140625 17.09765625 C-1.19527344 18.32484375 -1.19914063 19.55203125 -1.203125 20.81640625 C-1.20183594 21.98171875 -1.20054687 23.14703125 -1.19921875 24.34765625 C-1.19809082 25.4253125 -1.19696289 26.50296875 -1.19580078 27.61328125 C-1.34732996 30.03985622 -1.34732996 30.03985622 -0.06640625 31.09765625 C2.93359375 31.26432292 2.93359375 31.26432292 5.93359375 31.09765625 C8.22700215 28.80424785 7.18237013 22.0094427 7.1875 18.7109375 C7.25817279 16.40849235 7.37824802 14.33415642 7.93359375 12.09765625 C11.43155596 9.07319146 15.49102857 8.23007483 19.93359375 7.09765625 C19.93359375 5.44765625 19.93359375 3.79765625 19.93359375 2.09765625 C15.13388633 1.56931909 15.13388633 1.56931909 10.93359375 3.09765625 Z " fill="#345AA9" transform="translate(144.06640625,22.90234375)"/>
<path d="M0 0 C2.97 0 5.94 0 9 0 C9.83378093 3.33512374 10.11814364 5.62444232 10.09765625 8.984375 C10.09443359 9.91894531 10.09121094 10.85351562 10.08789062 11.81640625 C10.07951172 12.78449219 10.07113281 13.75257812 10.0625 14.75 C10.05798828 15.73355469 10.05347656 16.71710937 10.04882812 17.73046875 C10.03706483 20.15370791 10.02062684 22.57682273 10 25 C9.01 25.33 8.02 25.66 7 26 C6.34 25.67 5.68 25.34 5 25 C4.96132812 23.22882812 4.96132812 23.22882812 4.921875 21.421875 C4.86558603 19.86454677 4.80823886 18.30725653 4.75 16.75 C4.73582031 15.97269531 4.72164063 15.19539063 4.70703125 14.39453125 C4.56175624 9.60264887 4.56175624 9.60264887 1.953125 5.703125 C1.30859375 5.14109375 0.6640625 4.5790625 0 4 C0 2.68 0 1.36 0 0 Z " fill="#406ED0" transform="translate(123,27)"/>
<path d="M0 0 C1.33804688 0.04060547 1.33804688 0.04060547 2.703125 0.08203125 C3.37859375 0.11683594 4.0540625 0.15164062 4.75 0.1875 C7.72750094 5.1619594 7.50298898 10.57145719 6.75 16.1875 C4.08901216 19.73548379 2.52728891 20.06477017 -1.8125 20.75 C-5.25 20.1875 -5.25 20.1875 -7.6875 18.4375 C-10.02243661 13.58083186 -10.27472714 8.47690037 -9.25 3.1875 C-6.40981483 0.09326157 -4.08517793 -0.16125702 0 0 Z M-6.25 3.1875 C-6.25 7.8075 -6.25 12.4275 -6.25 17.1875 C-2.95 17.1875 0.35 17.1875 3.75 17.1875 C3.77685412 14.87506208 3.79632841 12.5625373 3.8125 10.25 C3.82410156 8.96222656 3.83570312 7.67445312 3.84765625 6.34765625 C4.11532549 3.32451597 4.11532549 3.32451597 2.75 2.1875 C-0.60107416 2.00636086 -2.93024318 2.3575608 -6.25 3.1875 Z " fill="#3861B6" transform="translate(102.25,29.8125)"/>
<path d="M0 0 C1.23556641 0.01740234 1.23556641 0.01740234 2.49609375 0.03515625 C3.32238281 0.04417969 4.14867188 0.05320312 5 0.0625 C5.63808594 0.07410156 6.27617188 0.08570312 6.93359375 0.09765625 C7.26359375 0.75765625 7.59359375 1.41765625 7.93359375 2.09765625 C4.96359375 2.09765625 1.99359375 2.09765625 -1.06640625 2.09765625 C-1.06640625 15.29765625 -1.06640625 28.49765625 -1.06640625 42.09765625 C2.39859375 41.60265625 2.39859375 41.60265625 5.93359375 41.09765625 C6.59359375 38.78765625 7.25359375 36.47765625 7.93359375 34.09765625 C8.26359375 34.09765625 8.59359375 34.09765625 8.93359375 34.09765625 C8.93359375 37.06765625 8.93359375 40.03765625 8.93359375 43.09765625 C4.97359375 43.09765625 1.01359375 43.09765625 -3.06640625 43.09765625 C-3.09105199 37.13452459 -3.10924025 31.1714223 -3.12133789 25.20825195 C-3.12637903 23.17797327 -3.13321182 21.14769823 -3.1418457 19.11743164 C-3.15392092 16.20588278 -3.15963659 13.29438175 -3.1640625 10.3828125 C-3.16922379 9.46927505 -3.17438507 8.55573761 -3.17970276 7.61451721 C-3.17989793 5.44190198 -3.1285243 3.26938329 -3.06640625 1.09765625 C-2.06640625 0.09765625 -2.06640625 0.09765625 0 0 Z " fill="#3459A7" transform="translate(87.06640625,22.90234375)"/>
<path d="M0 0 C0.33 0 0.66 0 1 0 C1 8.58 1 17.16 1 26 C2.98 25.67 4.96 25.34 7 25 C6.98952637 24.43490723 6.97905273 23.86981445 6.96826172 23.28759766 C6.92675212 20.73344347 6.9006904 18.17936018 6.875 15.625 C6.85824219 14.73554687 6.84148438 13.84609375 6.82421875 12.9296875 C6.81777344 12.07890625 6.81132813 11.228125 6.8046875 10.3515625 C6.79421387 9.56604004 6.78374023 8.78051758 6.77294922 7.97119141 C7 6 7 6 9 4 C11.05859375 3.734375 11.05859375 3.734375 13.4375 3.75 C14.61119141 3.74226563 14.61119141 3.74226563 15.80859375 3.734375 C18 4 18 4 21 6 C21.34057617 8.06298828 21.34057617 8.06298828 21.29296875 10.5703125 C21.28330078 11.46621094 21.27363281 12.36210938 21.26367188 13.28515625 C21.23853516 14.22230469 21.21339844 15.15945312 21.1875 16.125 C21.16719727 17.54232422 21.16719727 17.54232422 21.14648438 18.98828125 C21.11106306 21.32608779 21.06167271 23.66276237 21 26 C20.67 26 20.34 26 20 26 C20 19.73 20 13.46 20 7 C14.35619781 5.89040068 14.35619781 5.89040068 10 6 C9.97494385 6.59538574 9.9498877 7.19077148 9.92407227 7.80419922 C9.80822506 10.49469136 9.68544804 13.1848234 9.5625 15.875 C9.52318359 16.81214844 9.48386719 17.74929687 9.44335938 18.71484375 C9.40146484 19.61074219 9.35957031 20.50664063 9.31640625 21.4296875 C9.26141968 22.67081299 9.26141968 22.67081299 9.20532227 23.93701172 C9 26 9 26 8 28 C5.66705225 28.04241723 3.33297433 28.04092937 1 28 C0 27 0 27 -0.11352539 24.40795898 C-0.10828857 23.28204346 -0.10305176 22.15612793 -0.09765625 20.99609375 C-0.09443359 19.78115234 -0.09121094 18.56621094 -0.08789062 17.31445312 C-0.07951172 16.03505859 -0.07113281 14.75566406 -0.0625 13.4375 C-0.05798828 12.15423828 -0.05347656 10.87097656 -0.04882812 9.54882812 C-0.03699545 6.36583978 -0.02051068 3.18294238 0 0 Z " fill="#3963BB" transform="translate(30,27)"/>
<path d="M0 0 C5.28 0 10.56 0 16 0 C16 10.23 16 20.46 16 31 C12.37 31 8.74 31 5 31 C5 24.07 5 17.14 5 10 C5.33 10 5.66 10 6 10 C6.33 16.6 6.66 23.2 7 30 C8.98 29.67 10.96 29.34 13 29 C13 20.09 13 11.18 13 2 C9.37 1.67 5.74 1.34 2 1 C1.627322 5.627322 1.627322 5.627322 3 8 C2.01 8 1.02 8 0 8 C0 5.36 0 2.72 0 0 Z " fill="#3459A9" transform="translate(167,25)"/>
<path d="M0 0 C1.81242052 -0.02687279 3.62495233 -0.04633715 5.4375 -0.0625 C6.44683594 -0.07410156 7.45617187 -0.08570312 8.49609375 -0.09765625 C11 0 11 0 12 1 C12.09983058 2.98757028 12.13080753 4.9786752 12.1328125 6.96875 C12.13474609 8.78439453 12.13474609 8.78439453 12.13671875 10.63671875 C12.13285156 11.91160156 12.12898437 13.18648437 12.125 14.5 C12.12886719 15.77488281 12.13273438 17.04976562 12.13671875 18.36328125 C12.13542969 19.57371094 12.13414062 20.78414062 12.1328125 22.03125 C12.13168457 23.15080078 12.13055664 24.27035156 12.12939453 25.42382812 C12 28 12 28 11 29 C9.00041636 29.04080783 6.99954746 29.04254356 5 29 C3.82530556 26.65061112 3.79965111 25.04926795 3.68359375 22.4296875 C3.62075195 21.08583984 3.62075195 21.08583984 3.55664062 19.71484375 C3.51732422 18.77769531 3.47800781 17.84054688 3.4375 16.875 C3.39431641 15.93011719 3.35113281 14.98523437 3.30664062 14.01171875 C3.20040928 11.67462908 3.09836824 9.3374317 3 7 C1.68 6.34 0.36 5.68 -1 5 C-0.67 3.35 -0.34 1.7 0 0 Z M2 2 C1.67 2.99 1.34 3.98 1 5 C1.99 5 2.98 5 4 5 C5.09315246 9.5838914 5.32282625 14.12511007 5.5625 18.8125 C5.60568359 19.60076172 5.64886719 20.38902344 5.69335938 21.20117188 C5.79878321 23.13394215 5.89983094 25.06695026 6 27 C8.75641416 26.50243908 8.75641416 26.50243908 11 25 C11.08713831 23.29227642 11.10700007 21.58101351 11.09765625 19.87109375 C11.09443359 18.83662109 11.09121094 17.80214844 11.08789062 16.73632812 C11.07951172 15.64771484 11.07113281 14.55910156 11.0625 13.4375 C11.05798828 12.34501953 11.05347656 11.25253906 11.04882812 10.12695312 C11.03699826 7.41791505 11.02051543 4.70898401 11 2 C8.03 2 5.06 2 2 2 Z " fill="#3B65C0" transform="translate(169,26)"/>
<path d="M0 0 C5.28 0 10.56 0 16 0 C16 10.23 16 20.46 16 31 C12.37 31 8.74 31 5 31 C5 23.74 5 16.48 5 9 C5.33 9 5.66 9 6 9 C6.33 15.27 6.66 21.54 7 28 C9.31 28 11.62 28 14 28 C14.02886751 23.85418113 14.04675327 19.70838784 14.0625 15.5625 C14.07087891 14.37849609 14.07925781 13.19449219 14.08789062 11.97460938 C14.09111328 10.84990234 14.09433594 9.72519531 14.09765625 8.56640625 C14.10289307 7.52427979 14.10812988 6.48215332 14.11352539 5.40844727 C14.27305556 3.04871253 14.27305556 3.04871253 13 2 C11.15108054 1.76636119 9.29511969 1.58696365 7.4375 1.4375 C6.42558594 1.35371094 5.41367188 1.26992188 4.37109375 1.18359375 C3.19740234 1.09271484 3.19740234 1.09271484 2 1 C1.84850702 4.62885324 1.84850702 4.62885324 3 8 C2.01 8 1.02 8 0 8 C0 5.36 0 2.72 0 0 Z " fill="#3358A6" transform="translate(120,25)"/>
<path d="M0 0 C3.63 0 7.26 0 11 0 C11 2.97 11 5.94 11 9 C7.37 9 3.74 9 0 9 C0 6.03 0 3.06 0 0 Z " fill="#3257A4" transform="translate(172,13)"/>
<path d="M0 0 C3.63 0 7.26 0 11 0 C11 2.97 11 5.94 11 9 C7.37 9 3.74 9 0 9 C0 6.03 0 3.06 0 0 Z " fill="#345BAB" transform="translate(125,13)"/>
<path d="M0 0 C0.33 0 0.66 0 1 0 C1.33 4.29 1.66 8.58 2 13 C7.61 13 13.22 13 19 13 C19 15.64 19 18.28 19 21 C15.5240645 22.73796775 11.58561327 22.47249926 7.75 22.6875 C6.90308594 22.74744141 6.05617187 22.80738281 5.18359375 22.86914062 C0.30590338 23.14602352 -3.41003371 22.95748562 -8 21 C-7.67 20.34 -7.34 19.68 -7 19 C-6.34 19.33 -5.68 19.66 -5 20 C-3.3325394 20.08426094 -1.66174813 20.10725143 0.0078125 20.09765625 C0.99394531 20.09443359 1.98007813 20.09121094 2.99609375 20.08789062 C4.54490234 20.07532227 4.54490234 20.07532227 6.125 20.0625 C7.16527344 20.05798828 8.20554688 20.05347656 9.27734375 20.04882812 C11.85161962 20.03701952 14.42578146 20.02055075 17 20 C17 18.35 17 16.7 17 15 C15.85660156 15.01160156 14.71320313 15.02320313 13.53515625 15.03515625 C12.04427246 15.04453288 10.55338691 15.05363321 9.0625 15.0625 C7.93038086 15.07506836 7.93038086 15.07506836 6.77539062 15.08789062 C4.85005687 15.09652441 2.92464419 15.05224333 1 15 C0 14 0 14 -0.09765625 10.83984375 C-0.08025391 8.90818359 -0.08025391 8.90818359 -0.0625 6.9375 C-0.05347656 5.64714844 -0.04445312 4.35679688 -0.03515625 3.02734375 C-0.02355469 2.02832031 -0.01195312 1.02929688 0 0 Z " fill="#3359A8" transform="translate(198,34)"/>
<path d="M0 0 C3.3 0 6.6 0 10 0 C10 0.66 10 1.32 10 2 C7.36 2 4.72 2 2 2 C2 11.57 2 21.14 2 31 C4.31 31.33 6.62 31.66 9 32 C9.33 25.4 9.66 18.8 10 12 C10.33 12 10.66 12 11 12 C11 18.93 11 25.86 11 33 C7.37 33 3.74 33 0 33 C0 22.11 0 11.22 0 0 Z " fill="#3357A5" transform="translate(29,23)"/>
<path d="M0 0 C1.4540625 0.0309375 1.4540625 0.0309375 2.9375 0.0625 C2.9375 0.3925 2.9375 0.7225 2.9375 1.0625 C1.2875 1.0625 -0.3625 1.0625 -2.0625 1.0625 C-2.0625 9.3125 -2.0625 17.5625 -2.0625 26.0625 C-0.7425 25.7325 0.5775 25.4025 1.9375 25.0625 C1.97488281 23.87011719 2.01226562 22.67773438 2.05078125 21.44921875 C2.11644032 19.882781 2.18288768 18.31637616 2.25 16.75 C2.27255859 15.96431641 2.29511719 15.17863281 2.31835938 14.36914062 C2.35380859 13.61181641 2.38925781 12.85449219 2.42578125 12.07421875 C2.45196533 11.37772217 2.47814941 10.68122559 2.50512695 9.96362305 C3.05938818 7.52656367 3.97192229 6.56875512 5.9375 5.0625 C8.125 5.375 8.125 5.375 9.9375 6.0625 C9.12796875 6.36929688 8.3184375 6.67609375 7.484375 6.9921875 C4.81675782 8.74070596 4.81675782 8.74070596 4.44726562 10.98144531 C4.25489456 13.39228918 4.19126126 15.7690117 4.1875 18.1875 C4.01120283 26.98879717 4.01120283 26.98879717 2.9375 28.0625 C-0.0625 28.1875 -0.0625 28.1875 -3.0625 28.0625 C-4.83699594 26.28800406 -4.19280072 23.71232739 -4.1953125 21.3125 C-4.19660156 20.1471875 -4.19789063 18.981875 -4.19921875 17.78125 C-4.19535156 16.5540625 -4.19148437 15.326875 -4.1875 14.0625 C-4.19136719 12.8353125 -4.19523438 11.608125 -4.19921875 10.34375 C-4.19792969 9.1784375 -4.19664062 8.013125 -4.1953125 6.8125 C-4.19418457 5.73484375 -4.19305664 4.6571875 -4.19189453 3.546875 C-4.00029628 -0.13181146 -3.7531508 0.07659491 0 0 Z " fill="#3B66C1" transform="translate(147.0625,25.9375)"/>
<path d="M0 0 C0.99 0.33 1.98 0.66 3 1 C3 2.98 3 4.96 3 7 C8.61 7 14.22 7 20 7 C20.33 5.02 20.66 3.04 21 1 C20.34 0.67 19.68 0.34 19 0 C20.32 0 21.64 0 23 0 C23 2.97 23 5.94 23 9 C15.41 9 7.82 9 0 9 C0 6.03 0 3.06 0 0 Z " fill="#3256A3" transform="translate(2,47)"/>
<path d="M0 0 C0.33 0 0.66 0 1 0 C1.33 6.93 1.66 13.86 2 21 C4.31 20.34 6.62 19.68 9 19 C9.495 10.09 9.495 10.09 10 1 C10.33 1 10.66 1 11 1 C11 7.93 11 14.86 11 22 C7.37 22 3.74 22 0 22 C0 14.74 0 7.48 0 0 Z " fill="#3358A6" transform="translate(49,34)"/>
<path d="M0 0 C0.99 0.33 1.98 0.66 3 1 C3.02886751 5.14581887 3.04675327 9.29161216 3.0625 13.4375 C3.07087891 14.62150391 3.07925781 15.80550781 3.08789062 17.02539062 C3.09111328 18.15009766 3.09433594 19.27480469 3.09765625 20.43359375 C3.10289307 21.47572021 3.10812988 22.51784668 3.11352539 23.59155273 C3 26 3 26 2 27 C-1 27.125 -1 27.125 -4 27 C-5 26 -5 26 -5.11352539 24.14233398 C-5.10828857 23.35157471 -5.10305176 22.56081543 -5.09765625 21.74609375 C-5.09443359 20.89208984 -5.09121094 20.03808594 -5.08789062 19.15820312 C-5.07951172 18.26037109 -5.07113281 17.36253906 -5.0625 16.4375 C-5.05798828 15.53580078 -5.05347656 14.63410156 -5.04882812 13.70507812 C-5.03700225 11.46998686 -5.0205222 9.23502563 -5 7 C-4.67 7 -4.34 7 -4 7 C-3.67 12.94 -3.34 18.88 -3 25 C-1.68 24.67 -0.36 24.34 1 24 C1.02893932 20.37501666 1.04677792 16.75006287 1.0625 13.125 C1.07087891 12.09246094 1.07925781 11.05992188 1.08789062 9.99609375 C1.09111328 9.00996094 1.09433594 8.02382813 1.09765625 7.0078125 C1.10289307 6.09660645 1.10812988 5.18540039 1.11352539 4.24658203 C1.14885565 1.96312491 1.14885565 1.96312491 0 0 Z " fill="#3A65BF" transform="translate(75,27)"/>
<path d="M0 0 C7.59 0 15.18 0 23 0 C23 2.97 23 5.94 23 9 C22.01 8.67 21.02 8.34 20 8 C20.185625 7.195625 20.37125 6.39125 20.5625 5.5625 C20.706875 4.716875 20.85125 3.87125 21 3 C19.78571012 1.55611429 19.78571012 1.55611429 16.18359375 1.90234375 C14.60153318 1.90901911 13.01948841 1.92098125 11.4375 1.9375 C10.63119141 1.94201172 9.82488281 1.94652344 8.99414062 1.95117188 C6.99606244 1.96299482 4.99802217 1.98093086 3 2 C3 4.31 3 6.62 3 9 C2.01 9 1.02 9 0 9 C0 6.03 0 3.06 0 0 Z " fill="#3256A2" transform="translate(2,13)"/>
<path d="M0 0 C-0.33 1.65 -0.66 3.3 -1 5 C-3.64 5 -6.28 5 -9 5 C-9 3.35 -9 1.7 -9 0 C-5.93109813 -1.53445094 -3.29905734 -0.54984289 0 0 Z " fill="#3862B9" transform="translate(182,15)"/>
<path d="M0 0 C1.65 0 3.3 0 5 0 C5 1.32 5 2.64 5 4 C3.35 4 1.7 4 0 4 C0 2.68 0 1.36 0 0 Z " fill="#3D6BCA" transform="translate(128,15)"/>
<path d="M0 0 C1.32 0 2.64 0 4 0 C4 1.32 4 2.64 4 4 C2.35 4 0.7 4 -1 4 C-0.67 2.68 -0.34 1.36 0 0 Z " fill="#3E6BCA" transform="translate(176,15)"/>
</svg>
